<svg xmlns="http://www.w3.org/2000/svg" xmlns:xlink="http://www.w3.org/1999/xlink" width="1600" zoomAndPan="magnify" viewBox="0 0 1200 299.999988" height="400" preserveAspectRatio="xMidYMid meet" version="1.0"><defs><g/></defs><path stroke-linecap="butt" transform="matrix(1.117588, -0.450475, 0.450475, 1.117588, 14.709889, 124.988764)" fill="none" stroke-linejoin="miter" d="M 2.603174 20.286703 L 63.204183 18.985074 L 63.206918 44.983843 L 26.12507 46.2864 L 26.12783 59.55548 L 55.522691 56.954526 L 55.523336 81.016084 L 27.428608 82.316574 L 27.427484 109.998498 L 2.603805 109.999531 Z M 2.603174 20.286703 " stroke="#97a9ff" stroke-width="34.134186" stroke-opacity="1" stroke-miterlimit="4"/><path stroke-linecap="butt" transform="matrix(1.141376, -0.386253, 0.386253, 1.141376, 93.253984, 93.461697)" fill="none" stroke-linejoin="miter" d="M 64.889216 82.572682 C 64.803795 86.465849 64.41262 90.19052 63.71262 93.745657 C 62.929195 97.385501 61.460892 100.591653 59.30053 103.365106 C 57.037654 106.138092 53.87315 108.349278 49.810088 109.999702 C 45.63899 111.736772 40.085851 112.602303 33.141413 112.603427 C 26.30667 112.604027 20.887091 111.608477 16.888818 109.618855 C 12.824927 107.630983 9.757234 105.025384 7.682621 101.81127 C 5.502049 98.677661 4.115017 95.080198 3.522563 91.015812 C 2.911264 87.037454 2.602639 83.004092 2.601788 78.920877 C 2.603915 74.859203 2.772189 70.781885 3.109634 66.700213 C 3.471224 62.719117 4.604422 59.036787 6.506157 55.652183 C 8.413659 52.35167 11.449312 49.621165 15.619257 47.462749 C 19.68064 45.281284 25.479558 44.023214 33.013977 43.684427 L 35.238575 43.684324 C 41.905186 43.685008 47.193959 44.814257 51.108959 47.080293 C 54.921164 49.407369 57.861413 52.308658 59.934857 55.779057 C 61.92629 59.249081 63.225601 62.974288 63.83997 66.953686 C 64.452833 71.038668 64.803446 74.856938 64.886662 78.413597 L 25.364153 81.904393 C 25.363959 84.868129 25.407822 87.388172 25.490637 89.459372 C 25.577142 91.620804 25.872483 93.397728 26.381763 94.795294 C 26.823486 96.169998 27.609345 97.164912 28.730129 97.77692 C 29.766448 98.476706 31.332328 98.825228 33.426728 98.825556 C 35.500625 98.825791 37.100251 98.518364 38.221498 97.905308 C 39.34237 97.374263 40.169526 96.507675 40.697865 95.300397 C 41.227862 94.17924 41.532692 92.752583 41.617504 91.015324 C 41.704348 89.282175 41.745448 87.239219 41.746945 84.888534 Z M 41.490639 73.206694 L 41.363513 73.208164 L 40.316623 63.58944 C 40.042751 62.274961 39.343621 61.145121 38.22235 60.190707 C 37.100039 59.239365 35.755149 58.763706 34.191789 58.7617 C 33.236332 58.763492 32.242379 58.889153 31.204781 59.143785 C 30.17016 59.419959 29.258041 59.809459 28.476598 60.318474 C 27.609979 60.846579 26.908852 61.502558 26.380399 62.28542 C 25.786328 63.070032 25.491869 64.021062 25.491873 65.143612 L 25.364956 74.762108 L 25.366426 74.889234 L 41.363513 73.208164 L 41.364983 73.335291 Z M 41.490639 73.206694 " stroke="#97a9ff" stroke-width="34.134186" stroke-opacity="1" stroke-miterlimit="4"/><path stroke-linecap="butt" transform="matrix(1.156862, -0.337048, 0.337048, 1.156862, 174.253457, 66.613463)" fill="none" stroke-linejoin="miter" d="M 30.284211 18.986589 L 26.921413 109.998701 L 2.984175 110.000701 L 2.602366 20.541482 Z M 30.284211 18.986589 " stroke="#97a9ff" stroke-width="34.134186" stroke-opacity="1" stroke-miterlimit="4"/><path stroke-linecap="butt" transform="matrix(1.165593, -0.305491, 0.305491, 1.165593, 214.775997, 54.861394)" fill="none" stroke-linejoin="miter" d="M 2.856711 68.382909 L 27.966903 66.827093 L 27.175099 109.998788 L 3.236859 109.998439 Z M 2.093625 46.794919 C 2.096453 41.694982 3.089028 38.137996 5.079936 36.129563 C 6.982585 34.138214 10.624215 33.145545 16.000198 33.143641 C 18.942544 33.144003 21.236485 33.534091 22.887471 34.318684 C 24.53986 35.187429 25.755705 36.276889 26.538142 37.587887 C 27.301915 38.880588 27.775581 40.308387 27.968549 41.873749 C 28.052039 43.524362 28.095218 45.124195 28.095771 46.669289 C 28.094201 48.401499 28.008935 50.095017 27.840796 51.746707 C 27.567137 53.481334 26.992457 54.996312 26.127807 56.287834 C 25.17548 57.683726 23.831127 58.772443 22.093927 59.557121 C 20.358953 60.422813 17.936142 60.856882 14.825495 60.859328 C 11.9673 60.857563 9.714732 60.424697 8.062342 59.555953 C 6.327207 58.772763 5.026756 57.724804 4.157033 56.414388 C 3.292608 55.122117 2.730251 53.61075 2.474742 51.874837 C 2.220637 50.223073 2.094369 48.531087 2.093625 46.794919 Z M 2.093625 46.794919 " stroke="#97a9ff" stroke-width="34.134186" stroke-opacity="1" stroke-miterlimit="4"/><path stroke-linecap="butt" transform="matrix(1.17703, -0.257935, 0.257935, 1.17703, 254.313783, 44.153142)" fill="none" stroke-linejoin="miter" d="M 61.490189 44.985672 L 61.648398 76.445429 L 20.157125 94.666197 L 61.77787 85.683287 L 61.777971 110.125781 L 4.157922 110.12669 L 4.031127 89.715243 C 4.645969 89.544656 5.683874 89.154818 7.143065 88.538703 C 8.624422 87.927445 10.361058 87.196236 12.348417 86.350716 C 14.254832 85.480819 16.379913 84.476311 18.730688 83.335413 C 20.97276 82.296805 23.270747 81.260494 25.61901 80.221925 C 30.994739 77.619927 36.93091 74.762408 43.426829 71.652535 L 3.10942 74.127611 L 2.603184 46.285338 Z M 61.490189 44.985672 " stroke="#97a9ff" stroke-width="34.134186" stroke-opacity="1" stroke-miterlimit="4"/><path stroke-linecap="butt" transform="matrix(1.196125, -0.145654, 0.145654, 1.196125, 392.908996, 16.809297)" fill="none" stroke-linejoin="miter" d="M 2.602494 94.921928 C 2.602661 92.319143 3.079085 90.149914 4.031767 88.414241 C 4.984448 86.678569 6.244232 85.290539 7.810727 84.25337 C 9.354304 83.216676 11.175071 82.478262 13.270594 82.0313 C 15.343673 81.607731 17.554143 81.396838 19.905613 81.395793 C 24.052865 81.397884 28.210875 81.874819 32.379644 82.826599 C 36.443333 83.863555 39.861789 84.942774 42.635011 86.064254 L 42.635181 69.301163 L 5.20728 72.538866 L 5.205303 44.985465 C 13.186423 45.069052 20.731006 45.197455 27.839836 45.364236 C 34.846948 45.53496 41.037961 45.756531 46.412484 46.032167 C 52.655069 46.286144 58.423985 46.541225 63.713188 46.793409 L 63.077023 109.999709 L 43.175552 109.999467 L 42.793534 101.014581 C 39.745199 103.788301 36.231722 105.956734 32.25271 107.523097 C 28.168618 109.174637 24.178801 109.998358 20.28569 110.001088 C 17.343527 109.998784 14.74098 109.567566 12.476006 108.69739 C 10.233023 107.914801 8.411307 106.837341 7.014858 105.458964 C 5.555224 104.063097 4.477313 102.455717 3.777907 100.636435 C 2.994049 98.8134 2.601983 96.91071 2.602494 94.921928 Z M 19.363578 95.55541 C 19.365347 97.123187 19.978923 98.252741 21.206348 98.954119 C 22.411104 99.73438 24.00909 100.12818 25.998264 100.125473 C 27.03649 100.127801 28.084322 99.863507 29.141762 99.33259 C 30.094597 98.909769 31.003698 98.390181 31.871891 97.777437 C 32.720384 97.165559 33.574897 96.423784 34.444693 95.556506 C 33.577415 94.68671 32.717689 93.915806 31.872735 93.238143 C 31.003854 92.62288 30.093696 92.051578 29.142262 91.524235 C 28.083398 91.101378 27.038071 90.889177 25.999453 90.890068 C 24.010672 90.889557 22.411961 91.279449 21.206148 92.063355 C 19.976882 92.932581 19.364968 94.095788 19.363578 95.55541 Z M 19.363578 95.55541 " stroke="#97a9ff" stroke-width="34.134186" stroke-opacity="1" stroke-miterlimit="4"/><path stroke-linecap="butt" transform="matrix(1.202591, -0.0755287, 0.0755287, 1.202591, 477.708729, 6.567055)" fill="none" stroke-linejoin="miter" d="M 27.683619 44.984581 L 26.792897 63.459585 C 27.660344 61.025948 28.782359 58.676512 30.158737 56.414511 C 31.468985 54.171094 32.993317 52.139263 34.728499 50.318814 C 36.357693 48.582658 38.179292 47.196397 40.190062 46.15983 C 42.093656 45.123028 44.084855 44.604943 46.157188 44.605168 C 52.400276 44.604234 57.130037 45.684101 60.349911 47.841737 C 63.459139 50.106112 65.618521 53.788759 66.824822 58.889477 C 67.968024 64.012217 68.442612 70.730054 68.251619 79.046428 C 67.999933 87.449939 67.618246 97.768216 67.109793 110.001463 L 41.205624 109.99865 C 41.482205 108.180791 41.787671 105.79956 42.125056 102.858397 C 42.379304 99.999714 42.644134 96.920818 42.919749 93.618474 C 43.087986 90.31913 43.216194 86.984791 43.300935 83.618488 C 43.386895 80.232772 43.34314 77.153985 43.172905 74.382328 C 42.919534 71.693152 42.486649 69.483178 41.871422 67.745734 C 41.259227 66.011728 40.349104 65.142519 39.140646 65.144579 C 36.370053 65.142726 33.851619 65.832334 31.585749 67.206933 C 29.257968 68.688082 27.482571 70.4248 26.253288 72.413447 L 24.318168 110.000193 L 2.984133 109.998567 C 2.985359 102.634988 2.982974 95.173737 2.983247 87.618456 C 2.89896 80.168302 2.858342 73.419252 2.858564 67.364633 C 2.771166 60.170891 2.687534 53.227497 2.604027 46.540717 Z M 27.683619 44.984581 " stroke="#97a9ff" stroke-width="34.134186" stroke-opacity="1" stroke-miterlimit="4"/><path stroke-linecap="butt" transform="matrix(1.204734, -0.023387, 0.023387, 1.204734, 566.865026, 1.577739)" fill="none" stroke-linejoin="miter" d="M 2.857079 68.379996 L 27.967367 66.82473 L 27.174586 110.001577 L 3.239082 110.000593 Z M 2.095891 46.793419 C 2.094387 41.693068 3.090707 38.139265 5.078431 36.128645 C 6.984685 34.139139 10.625801 33.143068 15.998475 33.143608 C 18.942613 33.142398 21.23713 33.533879 22.888507 34.318177 C 24.538248 35.186747 25.755684 36.277135 26.540815 37.589344 C 27.300457 38.87836 27.778525 40.307819 27.968598 41.874354 C 28.053318 43.523147 28.093605 45.12244 28.096004 46.66912 C 28.094754 48.403789 28.01005 50.094686 27.841768 51.748294 C 27.564953 53.480856 26.994038 54.996952 26.12597 56.286794 C 25.174797 57.682024 23.830681 58.774565 22.093814 59.554694 C 20.358488 60.422399 17.937663 60.858525 14.824983 60.856463 C 11.968357 60.859372 9.713616 60.423269 8.063875 59.5547 C 6.328164 58.772007 5.025576 57.725359 4.159352 56.414819 C 3.289509 55.123663 2.728807 53.608297 2.477118 51.875202 C 2.220615 50.223075 2.094578 48.531329 2.095891 46.793419 Z M 2.095891 46.793419 " stroke="#97a9ff" stroke-width="34.134186" stroke-opacity="1" stroke-miterlimit="4"/><path stroke-linecap="butt" transform="matrix(1.204602, 0.0293998, -0.0293998, 1.204602, 608.116798, 0.324934)" fill="none" stroke-linejoin="miter" d="M -1.302311 47.207032 L 27.173355 44.984704 L 37.458288 89.714172 L 43.934395 47.208761 L 73.204541 44.986499 L 53.427902 110.000327 L 21.966515 109.999642 Z M -1.302311 47.207032 " stroke="#97a9ff" stroke-width="34.134186" stroke-opacity="1" stroke-miterlimit="4"/><path stroke-linecap="butt" transform="matrix(1.200727, 0.10092, -0.10092, 1.200727, 700.326183, 2.821214)" fill="none" stroke-linejoin="miter" d="M 64.888321 82.571528 C 64.802517 86.466358 64.412914 90.191527 63.713053 93.747579 C 62.928985 97.385533 61.458107 100.593227 59.299875 103.364201 C 57.037728 106.137402 53.872764 108.348849 49.808486 110.001502 C 45.640347 111.734455 40.085123 112.601514 33.142814 112.602679 C 26.307923 112.604575 20.888946 111.609091 16.889384 109.619186 C 12.82467 107.62825 9.756165 105.02656 7.683598 101.810885 C 5.50394 98.675781 4.115184 95.080562 3.522978 91.014992 C 2.908757 87.035856 2.602484 83.004812 2.604159 78.921859 C 2.604233 74.858561 2.77256 70.784374 3.11237 66.699027 C 3.470832 62.719469 4.602699 59.03927 6.507428 55.651969 C 8.412755 52.349202 11.449472 49.618256 15.617848 47.462362 C 19.683367 45.28258 25.481952 44.020945 33.014147 43.683916 L 35.235998 43.682606 C 41.905323 43.684866 47.19571 44.814781 51.111204 47.08177 C 54.921208 49.409678 57.861776 52.308406 59.936139 55.777683 C 61.92624 59.250789 63.228129 62.973679 63.839119 66.953086 C 64.455567 71.036138 64.802882 74.858779 64.886982 78.414004 L 25.364036 81.905036 C 25.365873 84.86858 25.408314 87.386271 25.491631 89.46134 C 25.575547 91.620943 25.871334 93.398375 26.378992 94.793638 C 26.826332 96.167944 27.609384 97.162684 28.728151 97.777859 C 29.766212 98.477894 31.334112 98.824339 33.429161 98.823927 C 35.501598 98.825416 37.099186 98.518719 38.221924 97.903836 C 39.342301 97.376989 40.167104 96.507369 40.696875 95.301437 C 41.227244 94.180038 41.533406 92.752161 41.618592 91.017532 C 41.703507 89.279673 41.746747 87.239513 41.744539 84.890862 Z M 41.491248 73.207005 L 41.364447 73.207903 L 40.318431 63.588162 C 40.042088 62.274308 39.341857 61.142477 38.220968 60.192397 C 37.099808 59.239088 35.755267 58.763259 34.190305 58.76141 C 33.237276 58.763433 32.242607 58.889326 31.206569 59.142319 C 30.169201 59.418197 29.258718 59.810286 28.475118 60.318587 C 27.608613 60.846869 26.909115 61.504256 26.379582 62.287248 C 25.788129 63.068937 25.490781 64.021101 25.490771 65.143469 L 25.36542 74.760812 L 25.363088 74.887884 L 41.364447 73.207903 L 41.365345 73.334704 Z M 41.491248 73.207005 " stroke="#97a9ff" stroke-width="34.134186" stroke-opacity="1" stroke-miterlimit="4"/><path stroke-linecap="butt" transform="matrix(1.193491, 0.165864, -0.165864, 1.193491, 786.4202, 10.323863)" fill="none" stroke-linejoin="miter" d="M 27.302302 46.285589 L 26.00078 62.284694 C 27.736538 56.381244 30.253227 51.9992 33.554951 49.144538 C 36.835276 46.371401 40.432622 44.984491 44.34699 44.983808 C 47.289411 44.984008 49.713755 45.589701 51.619128 46.794464 C 53.523173 48.107419 55.035434 49.969039 56.159569 52.382089 C 57.299672 54.815831 58.082331 57.80983 58.507548 61.364087 C 58.952923 64.922088 59.130131 68.952661 59.046486 73.461336 L 34.190118 76.064753 C 34.020225 73.123059 33.809532 70.782715 33.555274 69.047378 C 33.281303 67.311507 32.231507 66.446056 30.411414 66.44371 C 29.292297 66.445409 27.693973 66.837729 25.619653 67.620222 L 25.617837 109.998792 L 2.985303 109.998807 C 2.985373 102.274606 2.984297 94.730577 2.985288 87.366274 C 2.90101 80.000729 2.857466 73.375759 2.857867 67.490917 C 2.772561 60.636097 2.687012 54.085696 2.601668 47.842925 Z M 27.302302 46.285589 " stroke="#97a9ff" stroke-width="34.134186" stroke-opacity="1" stroke-miterlimit="4"/><path stroke-linecap="butt" transform="matrix(1.182884, 0.229599, -0.229599, 1.182884, 862.651586, 20.95028)" fill="none" stroke-linejoin="miter" d="M 38.475454 65.142162 C 38.475768 64.191036 38.094233 63.195144 37.332084 62.160851 C 36.549604 61.123899 35.3751 60.602247 33.809808 60.602259 C 33.470283 60.605418 33.121641 60.646671 32.761317 60.729819 C 32.338674 60.815157 31.904349 60.94239 31.458342 61.111518 C 30.338242 61.533673 29.567417 62.13901 29.14145 62.92178 C 28.613121 63.704605 28.263116 64.65756 28.094618 65.780028 C 27.926174 67.004857 27.882047 68.393787 27.966749 69.936036 C 27.967379 71.504511 27.968587 73.195059 27.968427 75.014662 C 27.969229 76.328826 28.135877 77.323497 28.475354 78.000624 C 28.729671 78.783443 29.079688 79.39578 29.522839 79.841436 C 29.945137 80.264721 30.42371 80.518572 30.952193 80.604224 C 31.374664 80.773198 31.767726 80.858717 32.127581 80.858218 C 32.464541 80.85886 32.677145 80.814291 32.760263 80.732111 L 33.014575 80.732284 L 41.745755 80.731639 C 45.130651 80.731787 48.211513 80.866902 50.983212 81.144583 C 53.756334 81.39557 56.180547 81.958651 58.253999 82.824279 C 60.242385 83.779069 61.799175 85.164375 62.918621 86.984614 C 63.97846 88.889074 64.508776 91.451103 64.505766 94.668137 C 64.508306 98.475206 63.375322 101.502082 61.109379 103.744965 C 58.78164 106.009749 55.967995 107.744711 52.665878 108.953652 C 49.363667 110.179123 45.892946 110.961769 42.253715 111.30159 C 38.528652 111.64156 35.238814 111.80789 32.37907 111.808181 C 28.994174 111.808033 26.001318 111.513837 23.396082 110.919846 C 20.793654 110.391357 18.539571 109.649952 16.634451 108.698814 C 14.646682 107.747206 13.003607 106.665949 11.712826 105.460172 C 10.318691 104.317387 9.141147 103.099538 8.190978 101.811136 C 6.030941 98.951208 4.728474 95.66064 4.286144 91.935632 L 29.140959 93.237075 C 29.143802 94.527726 29.142267 95.693739 29.142101 96.730697 C 29.036391 97.768326 29.077635 98.678363 29.269015 99.460188 C 29.437502 100.243155 29.820242 100.802908 30.411489 101.143866 C 30.939854 101.586191 31.808964 101.81047 33.014402 101.810958 L 34.064089 101.808653 C 35.712351 101.640631 36.974064 101.471684 37.839062 101.300485 C 38.707336 101.112138 39.354719 100.636436 39.778029 99.873996 C 40.137877 99.09085 40.316056 97.831108 40.315747 96.094154 C 40.316204 94.446213 40.23159 92.104787 40.063758 89.079425 L 33.016761 89.080098 C 30.857015 89.079913 28.951244 89.027129 27.30263 88.921128 C 25.651507 88.921289 24.096231 88.836799 22.633621 88.668277 C 21.06818 88.582457 19.503209 88.413989 17.934907 88.160308 C 16.287138 87.905539 14.465706 87.555689 12.477592 87.112704 C 8.92041 86.327024 6.413848 84.591096 4.95154 81.906155 C 3.386254 79.218086 2.60378 75.493053 2.60412 70.731058 C 2.604607 69.52562 2.686962 68.010386 2.855603 66.191104 C 2.941743 64.457183 3.289928 62.593144 3.904575 60.604733 C 4.51823 58.679259 5.472214 56.72075 6.760164 54.730441 C 8.051445 52.825345 9.913964 51.090068 12.347722 49.524609 C 14.782003 47.978862 17.861821 46.730512 21.587174 45.779559 C 25.31191 44.825423 29.862976 44.351543 35.23852 44.348373 C 39.324031 44.351228 42.876913 44.774489 45.90415 45.620102 C 48.847369 46.594302 51.355606 47.811442 53.42886 49.271524 C 55.522499 50.836626 57.216539 52.571755 58.507795 54.477528 C 59.735646 56.464958 60.729515 58.454874 61.491968 60.443475 C 63.140711 65.228823 63.714823 70.602523 63.205991 76.572794 L 38.762134 76.571949 Z M 38.475454 65.142162 " stroke="#97a9ff" stroke-width="34.134186" stroke-opacity="1" stroke-miterlimit="4"/><path stroke-linecap="butt" transform="matrix(1.168044, 0.295978, -0.295978, 1.168044, 945.978811, 37.273858)" fill="none" stroke-linejoin="miter" d="M 42.634128 69.301486 L 5.206823 72.54169 L 5.206864 44.984934 C 13.184506 45.070315 20.730618 45.194814 27.840507 45.36631 C 34.845812 45.534209 41.035947 45.758176 46.412461 46.031132 C 52.653801 46.2856 58.423382 46.539217 63.71178 46.79437 L 63.080235 110.000488 L 43.175341 110.001166 L 42.794393 101.014673 C 39.744708 103.787323 36.231567 105.958394 32.254176 107.524743 C 28.167764 109.17557 24.179351 109.998941 20.286589 109.998795 C 17.343627 109.99876 14.738943 109.565203 12.475681 108.697328 C 10.233918 107.9143 8.412651 106.83744 7.016572 105.458872 C 5.555965 104.063213 4.476011 102.454048 3.777506 100.634521 C 2.995661 98.816045 2.602732 96.909053 2.604248 94.922176 C 2.603004 92.317308 3.080415 90.149644 4.031745 88.413693 C 4.983076 86.677743 6.243736 85.291476 7.810584 84.255687 C 9.353046 83.216045 11.175588 82.476646 13.270333 82.032796 C 15.343123 81.607886 17.554198 81.398755 19.905106 81.398322 C 24.051827 81.397657 28.211858 81.871849 32.379711 82.825633 C 36.444828 83.862303 39.86221 84.942713 42.634201 86.062924 Z M 46.826376 41.461653 L 27.681563 40.159434 L 28.728604 38.603231 C 29.427699 37.653557 30.339046 36.4461 31.460299 34.984797 C 32.58306 33.503046 33.797407 31.894416 35.110423 30.160455 C 36.315712 28.423694 37.493146 26.827761 38.63405 25.364823 C 39.67138 23.968261 40.580339 22.751376 41.364863 21.716514 C 42.042714 20.762191 42.336827 20.286352 42.253487 20.287405 L 63.586223 20.286097 Z M 19.365347 95.554255 C 19.364853 97.122841 19.979391 98.254661 21.206613 98.953655 C 22.411297 99.735279 24.008649 100.12645 25.998669 100.12717 C 27.035748 100.128575 28.085338 99.862613 29.141953 99.334018 C 30.094325 98.908755 31.003157 98.390854 31.871591 97.779517 C 32.718782 97.16353 33.575016 96.424858 34.444985 95.555623 C 33.576547 94.688796 32.718631 93.916286 31.871238 93.238094 C 31.003611 92.625226 30.096013 92.052584 29.142956 91.524904 C 28.085656 91.100557 27.035325 90.888478 25.999043 90.890215 C 24.009023 90.889495 22.412597 91.280647 21.206623 92.064467 C 19.978111 92.930915 19.363836 94.096538 19.365347 95.554255 Z M 19.365347 95.554255 " stroke="#97a9ff" stroke-width="34.134186" stroke-opacity="1" stroke-miterlimit="4"/><path stroke-linecap="butt" transform="matrix(1.15046, 0.35829, -0.35829, 1.15046, 1028.279364, 58.378471)" fill="none" stroke-linejoin="miter" d="M 27.301887 46.285553 L 26.00007 62.285958 C 27.736274 56.380549 30.253255 52.000975 33.55624 49.142212 C 36.835931 46.372192 40.433758 44.98348 44.349517 44.986326 C 47.289241 44.98416 49.714539 45.586998 51.618256 46.793671 C 53.523998 48.104971 55.035266 49.970335 56.156321 52.381647 C 57.301527 54.815996 58.084934 57.81121 58.506543 61.36729 C 58.951746 64.922812 59.13019 68.951881 59.046898 73.459722 L 34.188907 76.064075 C 34.019654 73.122061 33.807654 70.784156 33.556002 69.049396 C 33.279792 67.312097 32.232655 66.446431 30.412661 66.446206 C 29.291967 66.445502 27.691865 66.835172 25.617379 67.620443 L 25.618272 110.001291 L 2.984675 110.0013 C 2.982143 102.274205 2.985235 94.728709 2.983703 87.364608 C 2.900175 79.99888 2.858274 73.377357 2.856074 67.49385 C 2.770699 60.634609 2.687341 54.087114 2.603109 47.842081 Z M 27.301887 46.285553 " stroke="#97a9ff" stroke-width="34.134186" stroke-opacity="1" stroke-miterlimit="4"/><path stroke-linecap="butt" transform="matrix(1.135778, 0.402418, -0.402418, 1.135778, 1100.278998, 81.22519)" fill="none" stroke-linejoin="miter" d="M 2.85896 68.382473 L 27.967756 66.825575 L 27.173157 110.00173 L 3.238869 110.00065 Z M 2.09505 46.793111 C 2.093698 41.693147 3.090267 38.138089 5.077563 36.127045 C 6.983246 34.138039 10.623995 33.143861 15.999811 33.144511 C 18.940459 33.144709 21.238355 33.534286 22.888468 34.318465 C 24.540119 35.184641 25.756154 36.277385 26.54052 37.588421 C 27.300947 38.880424 27.775799 40.308002 27.969216 41.873127 C 28.052507 43.525421 28.09581 45.123097 28.096071 46.667239 C 28.095848 48.404151 28.010692 50.095492 27.842769 51.747372 C 27.566694 53.482283 26.995259 54.995112 26.125408 56.286941 C 25.175483 57.682806 23.831191 58.771293 22.093614 59.555459 C 20.358659 60.424678 17.935708 60.856685 14.82387 60.858674 C 11.969357 60.858912 9.713664 60.423428 8.065069 59.556169 C 6.32882 58.771556 5.026527 57.72657 4.159081 56.414017 C 3.29202 55.121964 2.728411 53.608898 2.475448 51.87571 C 2.222941 50.221465 2.094826 48.530024 2.09505 46.793111 Z M 2.09505 46.793111 " stroke="#97a9ff" stroke-width="34.134186" stroke-opacity="1" stroke-miterlimit="4"/><path stroke-linecap="butt" transform="matrix(1.117913, 0.449669, -0.449669, 1.117913, 1139.134395, 94.590374)" fill="none" stroke-linejoin="miter" d="M 2.60218 78.921894 C 2.602768 74.857862 2.774302 70.78447 3.112565 66.699921 C 3.471496 62.718875 4.604563 59.037931 6.509345 55.651076 C 8.413086 52.348501 11.449677 49.621048 15.619705 47.461493 C 19.683744 45.281674 25.480881 44.022566 33.014124 43.682958 L 35.747158 43.684307 C 42.941533 43.683671 48.497567 44.761349 52.413461 46.921558 C 56.304876 49.185958 59.206501 52.012721 61.109901 55.398249 C 62.932197 58.868814 64.020635 62.634566 64.380643 66.70031 C 64.719178 70.869036 64.887605 74.858095 64.888932 78.666278 C 64.888715 82.922343 64.622147 87.037456 64.094655 91.016419 C 63.586587 95.07842 62.283682 98.719358 60.188949 101.938023 C 58.114681 105.155444 54.950744 107.713984 50.69956 109.619656 C 46.464791 111.609575 40.613566 112.603913 33.142877 112.603878 C 26.307888 112.603219 20.889264 111.606545 16.889425 109.61987 C 12.825771 107.630911 9.754814 105.026008 7.681979 101.809965 C 5.503358 98.678406 4.114847 95.07878 3.524883 91.014683 C 2.910404 87.037321 2.602837 83.006391 2.60218 78.921894 Z M 33.427202 65.27191 C 31.332927 65.607647 29.767388 66.041692 28.729375 66.571037 C 27.60725 67.186629 26.823929 68.053801 26.380621 69.175561 C 25.873498 70.295036 25.575263 71.725336 25.490721 73.461034 C 25.406179 75.196733 25.365376 77.449456 25.366514 80.223421 C 25.364476 82.911308 25.406912 85.249353 25.490814 87.238766 C 25.577725 89.22697 25.872277 90.880067 26.382284 92.19142 C 26.823183 93.565513 27.607689 94.560292 28.728575 95.175169 C 29.767148 95.872075 31.334202 96.223623 33.42732 96.223799 C 35.586051 96.222042 37.227604 95.872731 38.347762 95.174068 C 39.491562 94.56024 40.318586 93.567168 40.823406 92.190046 C 41.354841 90.879092 41.662283 89.228446 41.745732 87.238108 C 41.74611 85.249736 41.744604 82.909204 41.746642 80.221317 C 41.746766 77.78928 41.789535 75.619627 41.871943 73.71357 C 41.871279 71.809478 41.745389 70.210837 41.492475 68.921864 C 41.216642 67.610661 40.686154 66.604556 39.905229 65.905347 C 39.143004 65.226569 37.976299 64.888696 36.411128 64.889308 C 35.628542 64.889614 34.634903 65.016745 33.427202 65.27191 Z M 33.427202 65.27191 " stroke="#97a9ff" stroke-width="34.134186" stroke-opacity="1" stroke-miterlimit="4"/><g fill="#5271ff" fill-opacity="1"><g transform="translate(64.262105, 247.923472)"><g><path d="M -37.515625 -101.4375 L 29.640625 -130.203125 L 41.359375 -101.125 L 0.515625 -83 L 6.484375 -68.171875 L 38.15625 -84.296875 L 48.984375 -57.421875 L 18.1875 -43.3125 L 30.671875 -12.359375 L 2.90625 -1.171875 Z M -37.515625 -101.4375 "/></g></g></g><g fill="#5271ff" fill-opacity="1"><g transform="translate(135.741818, 219.013075)"><g><path d="M 63.46875 -56.375 C 64.863281 -51.894531 65.859375 -47.488281 66.453125 -43.15625 C 66.953125 -38.695312 66.507812 -34.46875 65.125 -30.46875 C 63.613281 -26.4375 60.851562 -22.691406 56.84375 -19.234375 C 52.757812 -15.648438 46.757812 -12.519531 38.84375 -9.84375 C 31.03125 -7.195312 24.460938 -6.238281 19.140625 -6.96875 C 13.710938 -7.675781 9.195312 -9.460938 5.59375 -12.328125 C 1.914062 -15.046875 -1.050781 -18.613281 -3.3125 -23.03125 C -5.550781 -27.332031 -7.457031 -31.8125 -9.03125 -36.46875 C -10.601562 -41.125 -11.976562 -45.84375 -13.15625 -50.625 C -14.300781 -55.3125 -14.441406 -59.957031 -13.578125 -64.5625 C -12.671875 -69.050781 -10.257812 -73.332031 -6.34375 -77.40625 C -2.519531 -81.457031 3.625 -85.132812 12.09375 -88.4375 L 14.625 -89.296875 C 22.238281 -91.878906 28.703125 -92.640625 34.015625 -91.578125 C 39.273438 -90.378906 43.757812 -88.203125 47.46875 -85.046875 C 51.09375 -81.859375 54.019531 -78.101562 56.25 -73.78125 C 58.507812 -69.375 60.378906 -65.15625 61.859375 -61.125 L 18.09375 -41.859375 C 19.226562 -38.492188 20.242188 -35.632812 21.140625 -33.28125 C 22.085938 -30.851562 23.128906 -28.945312 24.265625 -27.5625 C 25.285156 -26.15625 26.554688 -25.316406 28.078125 -25.046875 C 29.546875 -24.660156 31.460938 -24.867188 33.828125 -25.671875 C 36.203125 -26.472656 37.910156 -27.441406 38.953125 -28.578125 C 40.046875 -29.609375 40.65625 -30.910156 40.78125 -32.484375 C 40.9375 -33.972656 40.734375 -35.726562 40.171875 -37.75 C 39.585938 -39.757812 38.847656 -42.097656 37.953125 -44.765625 Z M 33.125 -58.015625 L 32.984375 -57.96875 L 28.078125 -68.5625 C 27.273438 -69.9375 26.046875 -70.953125 24.390625 -71.609375 C 22.742188 -72.253906 21.03125 -72.273438 19.25 -71.671875 C 18.164062 -71.304688 17.078125 -70.78125 15.984375 -70.09375 C 14.890625 -69.394531 14 -68.597656 13.3125 -67.703125 C 12.519531 -66.773438 11.984375 -65.765625 11.703125 -64.671875 C 11.296875 -63.546875 11.3125 -62.335938 11.75 -61.046875 L 15.328125 -50.03125 L 15.375 -49.875 L 32.984375 -57.96875 L 33.046875 -57.828125 Z M 33.125 -58.015625 "/></g></g></g><g fill="#5271ff" fill-opacity="1"><g transform="translate(211.328736, 193.86828)"><g><path d="M 4.375 -115.53125 L 31.140625 -9.078125 L 3.46875 -1.015625 L -27.140625 -104.375 Z M 4.375 -115.53125 "/></g></g></g><g fill="#5271ff" fill-opacity="1"><g transform="translate(248.379962, 183.076587)"><g><path d="M -9.375 -49.375 L 19.40625 -58.859375 L 31.671875 -8.296875 L 3.796875 -1 Z M -16.890625 -74.3125 C -18.453125 -80.257812 -18.375 -84.703125 -16.65625 -87.640625 C -15.039062 -90.546875 -11.101562 -92.820312 -4.84375 -94.46875 C -1.40625 -95.363281 1.390625 -95.601562 3.546875 -95.1875 C 5.734375 -94.695312 7.484375 -93.8125 8.796875 -92.53125 C 10.097656 -91.25 11.09375 -89.726562 11.78125 -87.96875 C 12.375 -86.0625 12.910156 -84.203125 13.390625 -82.390625 C 13.921875 -80.367188 14.335938 -78.375 14.640625 -76.40625 C 14.867188 -74.300781 14.675781 -72.363281 14.0625 -70.59375 C 13.375 -68.675781 12.140625 -67 10.359375 -65.5625 C 8.597656 -64.019531 5.898438 -62.773438 2.265625 -61.828125 C -1.078125 -60.953125 -3.832031 -60.769531 -6 -61.28125 C -8.269531 -61.65625 -10.109375 -62.46875 -11.515625 -63.71875 C -12.921875 -64.96875 -14.039062 -66.5625 -14.875 -68.5 C -15.6875 -70.34375 -16.359375 -72.28125 -16.890625 -74.3125 Z M -16.890625 -74.3125 "/></g></g></g><g fill="#5271ff" fill-opacity="1"><g transform="translate(282.686604, 173.62648)"><g><path d="M 55.625 -92.390625 L 63.890625 -55.375 L 19.765625 -23.265625 L 66.4375 -44.5625 L 72.734375 -15.78125 L 4.9375 -0.921875 L -0.484375 -24.921875 C 0.179688 -25.273438 1.304688 -26.003906 2.890625 -27.109375 C 4.460938 -28.203125 6.3125 -29.515625 8.4375 -31.046875 C 10.457031 -32.546875 12.703125 -34.265625 15.171875 -36.203125 C 17.546875 -38.015625 19.984375 -39.832031 22.484375 -41.65625 C 28.128906 -46.101562 34.375 -51 41.21875 -56.34375 L -5.578125 -43.0625 L -13.375 -75.671875 Z M 55.625 -92.390625 "/></g></g></g><g fill="#5271ff" fill-opacity="1"><g transform="translate(356.72783, 157.631231)"><g/></g></g><g fill="#5271ff" fill-opacity="1"><g transform="translate(408.930927, 148.383076)"><g><path d="M 0.921875 -18.40625 C 0.546875 -21.519531 0.800781 -24.191406 1.6875 -26.421875 C 2.570312 -28.617188 3.875 -30.457031 5.59375 -31.9375 C 7.289062 -33.414062 9.351562 -34.5625 11.78125 -35.375 C 14.21875 -36.195312 16.832031 -36.773438 19.625 -37.109375 C 24.601562 -37.722656 29.65625 -37.765625 34.78125 -37.234375 C 39.789062 -36.578125 44.039062 -35.773438 47.53125 -34.828125 L 45.09375 -54.90625 L 0.765625 -45.546875 L -3.25 -78.515625 C 6.300781 -79.578125 15.34375 -80.519531 23.875 -81.34375 C 32.289062 -82.175781 39.738281 -82.828125 46.21875 -83.296875 C 53.707031 -83.890625 60.640625 -84.414062 67.015625 -84.875 L 75.4375 -9.1875 L 51.640625 -6.28125 L 49.859375 -16.96875 C 46.628906 -13.195312 42.75 -10.097656 38.21875 -7.671875 C 33.582031 -5.097656 28.929688 -3.523438 24.265625 -2.953125 C 20.734375 -2.523438 17.5625 -2.660156 14.75 -3.359375 C 11.9375 -3.984375 9.601562 -5.019531 7.75 -6.46875 C 5.769531 -7.90625 4.238281 -9.664062 3.15625 -11.75 C 1.957031 -13.8125 1.210938 -16.03125 0.921875 -18.40625 Z M 21.0625 -20.09375 C 21.289062 -18.226562 22.1875 -16.96875 23.75 -16.3125 C 25.3125 -15.550781 27.285156 -15.3125 29.671875 -15.59375 C 30.910156 -15.75 32.117188 -16.210938 33.296875 -16.984375 C 34.378906 -17.648438 35.390625 -18.410156 36.328125 -19.265625 C 37.273438 -20.117188 38.195312 -21.125 39.09375 -22.28125 C 37.9375 -23.1875 36.796875 -24 35.671875 -24.71875 C 34.546875 -25.3125 33.375 -25.847656 32.15625 -26.328125 C 30.84375 -26.691406 29.566406 -26.796875 28.328125 -26.640625 C 25.941406 -26.359375 24.082031 -25.664062 22.75 -24.5625 C 21.414062 -23.351562 20.851562 -21.863281 21.0625 -20.09375 Z M 21.0625 -20.09375 "/></g></g></g><g fill="#5271ff" fill-opacity="1"><g transform="translate(486.016884, 138.852112)"><g><path d="M 28.40625 -80.28125 L 28.703125 -58 C 29.554688 -60.988281 30.726562 -63.894531 32.21875 -66.71875 C 33.625 -69.507812 35.300781 -72.070312 37.25 -74.40625 C 39.09375 -76.613281 41.175781 -78.414062 43.5 -79.8125 C 45.707031 -81.207031 48.066406 -81.984375 50.578125 -82.140625 C 58.085938 -82.609375 63.851562 -81.664062 67.875 -79.3125 C 71.789062 -76.832031 74.671875 -72.5625 76.515625 -66.5 C 78.265625 -60.425781 79.347656 -52.382812 79.765625 -42.375 C 80.085938 -32.238281 80.394531 -19.800781 80.6875 -5.0625 L 49.578125 -3.109375 C 49.753906 -5.328125 49.9375 -8.222656 50.125 -11.796875 C 50.226562 -15.234375 50.304688 -18.953125 50.359375 -22.953125 C 50.316406 -26.929688 50.21875 -30.953125 50.0625 -35.015625 C 49.914062 -39.085938 49.632812 -42.789062 49.21875 -46.125 C 48.707031 -49.332031 48.023438 -51.953125 47.171875 -53.984375 C 46.304688 -56.023438 45.140625 -57 43.671875 -56.90625 C 40.347656 -56.695312 37.378906 -55.675781 34.765625 -53.84375 C 32.066406 -51.894531 30.0625 -49.671875 28.75 -47.171875 L 29.234375 -1.84375 L 3.609375 -0.21875 C 3.054688 -9.070312 2.492188 -18.039062 1.921875 -27.125 C 1.253906 -36.082031 0.691406 -44.210938 0.234375 -51.515625 C -0.410156 -60.160156 -1.039062 -68.492188 -1.65625 -76.515625 Z M 28.40625 -80.28125 "/></g></g></g><g fill="#5271ff" fill-opacity="1"><g transform="translate(569.437597, 134.098476)"><g><path d="M 2.484375 -50.1875 L 32.671875 -52.65625 L 32.75 -0.640625 L 3.921875 -0.078125 Z M 1.015625 -76.1875 C 0.898438 -82.34375 2.023438 -86.648438 4.390625 -89.109375 C 6.640625 -91.554688 11 -92.84375 17.46875 -92.96875 C 21.019531 -93.039062 23.800781 -92.617188 25.8125 -91.703125 C 27.8125 -90.703125 29.300781 -89.429688 30.28125 -87.890625 C 31.25 -86.328125 31.851562 -84.613281 32.09375 -82.75 C 32.238281 -80.757812 32.328125 -78.828125 32.359375 -76.953125 C 32.398438 -74.859375 32.335938 -72.820312 32.171875 -70.84375 C 31.898438 -68.738281 31.257812 -66.894531 30.25 -65.3125 C 29.125 -63.613281 27.53125 -62.273438 25.46875 -61.296875 C 23.382812 -60.210938 20.460938 -59.632812 16.703125 -59.5625 C 13.253906 -59.5 10.535156 -59.96875 8.546875 -60.96875 C 6.429688 -61.863281 4.835938 -63.085938 3.765625 -64.640625 C 2.691406 -66.179688 1.976562 -68 1.625 -70.09375 C 1.257812 -72.0625 1.054688 -74.09375 1.015625 -76.1875 Z M 1.015625 -76.1875 "/></g></g></g><g fill="#5271ff" fill-opacity="1"><g transform="translate(604.882825, 132.831183)"><g><path d="M 0.28125 -75.703125 L 34.640625 -77.515625 L 45.703125 -23.34375 L 54.78125 -74.375 L 90.09375 -76.15625 L 64.390625 1.578125 L 26.46875 0.640625 Z M 0.28125 -75.703125 "/></g></g></g><g fill="#5271ff" fill-opacity="1"><g transform="translate(689.224993, 134.901216)"><g><path d="M 80.671875 -26.40625 C 80.171875 -21.726562 79.332031 -17.289062 78.15625 -13.09375 C 76.84375 -8.789062 74.75 -5.082031 71.875 -1.96875 C 68.882812 1.125 64.859375 3.457031 59.796875 5.03125 C 54.617188 6.6875 47.867188 7.164062 39.546875 6.46875 C 31.328125 5.78125 24.925781 4.035156 20.34375 1.234375 C 15.644531 -1.566406 12.210938 -5 10.046875 -9.0625 C 7.753906 -13.019531 6.453125 -17.476562 6.140625 -22.4375 C 5.804688 -27.28125 5.847656 -32.15625 6.265625 -37.0625 C 6.671875 -41.945312 7.289062 -46.816406 8.125 -51.671875 C 8.9375 -56.429688 10.65625 -60.742188 13.28125 -64.609375 C 15.90625 -68.378906 19.828125 -71.347656 25.046875 -73.515625 C 30.160156 -75.710938 37.257812 -76.640625 46.34375 -76.296875 L 49 -76.0625 C 57.019531 -75.394531 63.253906 -73.515625 67.703125 -70.421875 C 72.054688 -67.222656 75.304688 -63.4375 77.453125 -59.0625 C 79.503906 -54.707031 80.691406 -50.097656 81.015625 -45.234375 C 81.316406 -40.285156 81.34375 -35.671875 81.09375 -31.390625 L 33.265625 -31.15625 C 32.972656 -27.625 32.773438 -24.597656 32.671875 -22.078125 C 32.566406 -19.484375 32.753906 -17.328125 33.234375 -15.609375 C 33.617188 -13.890625 34.453125 -12.613281 35.734375 -11.78125 C 36.921875 -10.832031 38.757812 -10.253906 41.25 -10.046875 C 43.75 -9.835938 45.707031 -10.046875 47.125 -10.671875 C 48.53125 -11.171875 49.609375 -12.125 50.359375 -13.53125 C 51.097656 -14.84375 51.609375 -16.53125 51.890625 -18.59375 C 52.160156 -20.664062 52.414062 -23.101562 52.65625 -25.90625 Z M 53.53125 -40 L 53.375 -40.015625 L 53.09375 -51.671875 C 52.90625 -53.253906 52.1875 -54.675781 50.9375 -55.9375 C 49.675781 -57.195312 48.109375 -57.90625 46.234375 -58.0625 C 45.085938 -58.15625 43.878906 -58.097656 42.609375 -57.890625 C 41.328125 -57.691406 40.191406 -57.316406 39.203125 -56.765625 C 38.117188 -56.234375 37.222656 -55.523438 36.515625 -54.640625 C 35.703125 -53.753906 35.238281 -52.640625 35.125 -51.296875 L 34 -39.75 L 33.984375 -39.59375 L 53.375 -40.015625 L 53.359375 -39.859375 Z M 53.53125 -40 "/></g></g></g><g fill="#5271ff" fill-opacity="1"><g transform="translate(768.175152, 141.607831)"><g><path d="M 43.15625 -71.515625 L 38.96875 -52.640625 C 42 -59.378906 45.71875 -64.1875 50.125 -67.0625 C 54.519531 -69.820312 59.046875 -70.878906 63.703125 -70.234375 C 67.210938 -69.742188 70.007812 -68.625 72.09375 -66.875 C 74.15625 -65 75.65625 -62.519531 76.59375 -59.4375 C 77.539062 -56.351562 77.976562 -52.648438 77.90625 -48.328125 C 77.84375 -44.015625 77.382812 -39.175781 76.53125 -33.8125 L 46.4375 -34.828125 C 46.71875 -38.378906 46.847656 -41.210938 46.828125 -43.328125 C 46.804688 -45.429688 45.710938 -46.632812 43.546875 -46.9375 C 42.191406 -47.125 40.210938 -46.925781 37.609375 -46.34375 L 30.578125 4.25 L 3.578125 0.5 C 4.859375 -8.707031 6.109375 -17.707031 7.328125 -26.5 C 8.441406 -35.3125 9.488281 -43.238281 10.46875 -50.28125 C 11.5 -58.457031 12.484375 -66.273438 13.421875 -73.734375 Z M 43.15625 -71.515625 "/></g></g></g><g fill="#5271ff" fill-opacity="1"><g transform="translate(837.395711, 151.067558)"><g><path d="M 55.828125 -44.234375 C 56.046875 -45.359375 55.8125 -46.625 55.125 -48.03125 C 54.445312 -49.445312 53.179688 -50.332031 51.328125 -50.6875 C 50.921875 -50.769531 50.503906 -50.800781 50.078125 -50.78125 C 49.546875 -50.78125 49.007812 -50.726562 48.46875 -50.625 C 47.019531 -50.363281 45.953125 -49.816406 45.265625 -48.984375 C 44.460938 -48.179688 43.832031 -47.140625 43.375 -45.859375 C 42.894531 -44.453125 42.523438 -42.816406 42.265625 -40.953125 C 41.898438 -39.109375 41.507812 -37.113281 41.09375 -34.96875 C 40.789062 -33.414062 40.769531 -32.195312 41.03125 -31.3125 C 41.15625 -30.320312 41.421875 -29.515625 41.828125 -28.890625 C 42.242188 -28.285156 42.753906 -27.867188 43.359375 -27.640625 C 43.828125 -27.347656 44.269531 -27.160156 44.6875 -27.078125 C 45.09375 -26.992188 45.359375 -27 45.484375 -27.09375 L 45.78125 -27.03125 L 56.09375 -25.03125 C 60.09375 -24.25 63.703125 -23.382812 66.921875 -22.4375 C 70.140625 -21.5 72.882812 -20.28125 75.15625 -18.78125 C 77.28125 -17.195312 78.804688 -15.191406 79.734375 -12.765625 C 80.523438 -10.273438 80.550781 -7.128906 79.8125 -3.328125 C 78.9375 1.179688 76.910156 4.507812 73.734375 6.65625 C 70.441406 8.769531 66.707031 10.171875 62.53125 10.859375 C 58.363281 11.535156 54.082031 11.660156 49.6875 11.234375 C 45.195312 10.785156 41.257812 10.234375 37.875 9.578125 C 33.875 8.796875 30.410156 7.753906 27.484375 6.453125 C 24.515625 5.242188 22.015625 3.859375 19.984375 2.296875 C 17.847656 0.703125 16.148438 -0.960938 14.890625 -2.703125 C 13.503906 -4.347656 12.394531 -6.050781 11.5625 -7.8125 C 9.65625 -11.6875 8.878906 -15.878906 9.234375 -20.390625 L 38.3125 -13.15625 C 38.007812 -11.613281 37.738281 -10.226562 37.5 -9 C 37.15625 -7.789062 37 -6.703125 37.03125 -5.734375 C 37.050781 -4.773438 37.382812 -4.023438 38.03125 -3.484375 C 38.539062 -2.835938 39.507812 -2.378906 40.9375 -2.109375 L 42.171875 -1.859375 C 44.160156 -1.691406 45.691406 -1.613281 46.765625 -1.625 C 47.828125 -1.625 48.707031 -2.035156 49.40625 -2.859375 C 49.988281 -3.703125 50.476562 -5.148438 50.875 -7.203125 C 51.257812 -9.160156 51.695312 -11.945312 52.1875 -15.5625 L 43.875 -17.1875 C 41.3125 -17.6875 39.066406 -18.175781 37.140625 -18.65625 C 35.191406 -19.03125 33.363281 -19.492188 31.65625 -20.046875 C 29.820312 -20.503906 28.019531 -21.0625 26.25 -21.71875 C 24.351562 -22.414062 22.273438 -23.25 20.015625 -24.21875 C 15.992188 -25.945312 13.421875 -28.566406 12.296875 -32.078125 C 11.066406 -35.628906 11 -40.222656 12.09375 -45.859375 C 12.375 -47.296875 12.828125 -49.066406 13.453125 -51.171875 C 13.953125 -53.203125 14.785156 -55.332031 15.953125 -57.5625 C 17.109375 -59.664062 18.679688 -61.753906 20.671875 -63.828125 C 22.660156 -65.785156 25.269531 -67.40625 28.5 -68.6875 C 31.71875 -69.976562 35.644531 -70.757812 40.28125 -71.03125 C 44.914062 -71.300781 50.410156 -70.816406 56.765625 -69.578125 C 61.585938 -68.640625 65.691406 -67.316406 69.078125 -65.609375 C 72.347656 -63.804688 75.039062 -61.789062 77.15625 -59.5625 C 79.257812 -57.238281 80.863281 -54.800781 81.96875 -52.25 C 82.945312 -49.601562 83.664062 -47.015625 84.125 -44.484375 C 84.988281 -38.460938 84.425781 -31.972656 82.4375 -25.015625 L 53.5 -30.640625 Z M 55.828125 -44.234375 "/></g></g></g><g fill="#5271ff" fill-opacity="1"><g transform="translate(913.421195, 165.758735)"><g><path d="M 61.859375 -34.921875 L 17.15625 -42.21875 L 25.328125 -74.40625 C 34.609375 -71.945312 43.375 -69.5625 51.625 -67.25 C 59.769531 -64.96875 66.945312 -62.882812 73.15625 -61 C 80.375 -58.84375 87.03125 -56.832031 93.125 -54.96875 L 73.671875 18.671875 L 50.421875 12.78125 L 52.625 2.171875 C 48.257812 4.515625 43.519531 6.007812 38.40625 6.65625 C 33.15625 7.375 28.25 7.15625 23.6875 6 C 20.25 5.125 17.34375 3.851562 14.96875 2.1875 C 12.5625 0.59375 10.753906 -1.210938 9.546875 -3.234375 C 8.242188 -5.285156 7.453125 -7.484375 7.171875 -9.828125 C 6.804688 -12.179688 6.921875 -14.519531 7.515625 -16.84375 C 8.285156 -19.882812 9.476562 -22.28125 11.09375 -24.03125 C 12.71875 -25.769531 14.601562 -27.015625 16.75 -27.765625 C 18.863281 -28.515625 21.207031 -28.835938 23.78125 -28.734375 C 26.332031 -28.617188 28.972656 -28.210938 31.703125 -27.515625 C 36.566406 -26.285156 41.285156 -24.503906 45.859375 -22.171875 C 50.304688 -19.742188 53.984375 -17.457031 56.890625 -15.3125 Z M 74.953125 -66.1875 L 53.03125 -73.359375 L 54.6875 -74.875 C 55.78125 -75.789062 57.207031 -76.941406 58.96875 -78.328125 C 60.71875 -79.710938 62.609375 -81.222656 64.640625 -82.859375 C 66.578125 -84.523438 68.414062 -86.054688 70.15625 -87.453125 C 71.789062 -88.765625 73.210938 -89.910156 74.421875 -90.890625 C 75.515625 -91.796875 76.007812 -92.265625 75.90625 -92.296875 L 100.828125 -85.96875 Z M 26.890625 -11.125 C 26.429688 -9.300781 26.8125 -7.800781 28.03125 -6.625 C 29.21875 -5.363281 30.976562 -4.4375 33.3125 -3.84375 C 34.519531 -3.539062 35.804688 -3.535156 37.171875 -3.828125 C 38.421875 -4.046875 39.644531 -4.390625 40.84375 -4.859375 C 42.03125 -5.304688 43.253906 -5.90625 44.515625 -6.65625 C 43.765625 -7.925781 42.988281 -9.097656 42.1875 -10.171875 C 41.351562 -11.128906 40.453125 -12.050781 39.484375 -12.9375 C 38.398438 -13.757812 37.253906 -14.320312 36.046875 -14.625 C 33.710938 -15.21875 31.722656 -15.238281 30.078125 -14.6875 C 28.390625 -14.039062 27.328125 -12.851562 26.890625 -11.125 Z M 26.890625 -11.125 "/></g></g></g><g fill="#5271ff" fill-opacity="1"><g transform="translate(988.867496, 184.929126)"><g><path d="M 54.25 -63.53125 L 47.015625 -45.59375 C 51.117188 -51.75 55.578125 -55.882812 60.390625 -58 C 65.179688 -60.007812 69.820312 -60.3125 74.3125 -58.90625 C 77.695312 -57.851562 80.269531 -56.285156 82.03125 -54.203125 C 83.757812 -52.023438 84.835938 -49.335938 85.265625 -46.140625 C 85.679688 -42.953125 85.507812 -39.226562 84.75 -34.96875 C 83.976562 -30.726562 82.734375 -26.035156 81.015625 -20.890625 L 51.5 -26.796875 C 52.363281 -30.242188 52.953125 -33.015625 53.265625 -35.109375 C 53.585938 -37.191406 52.707031 -38.554688 50.625 -39.203125 C 49.320312 -39.609375 47.335938 -39.734375 44.671875 -39.578125 L 29.484375 9.1875 L 3.453125 1.078125 C 6.210938 -7.796875 8.914062 -16.472656 11.5625 -24.953125 C 14.09375 -33.460938 16.414062 -41.109375 18.53125 -47.890625 C 20.875 -55.796875 23.117188 -63.351562 25.265625 -70.5625 Z M 54.25 -63.53125 "/></g></g></g><g fill="#5271ff" fill-opacity="1"><g transform="translate(1056.013033, 206.160727)"><g><path d="M 20 -46.109375 L 49.125 -37.78125 L 30.875 10.9375 L 3.703125 1.3125 Z M 27.796875 -70.953125 C 29.847656 -76.753906 32.410156 -80.382812 35.484375 -81.84375 C 38.453125 -83.351562 42.984375 -83.023438 49.078125 -80.859375 C 52.429688 -79.671875 54.890625 -78.300781 56.453125 -76.75 C 57.972656 -75.101562 58.914062 -73.382812 59.28125 -71.59375 C 59.632812 -69.800781 59.597656 -67.984375 59.171875 -66.140625 C 58.609375 -64.234375 58.015625 -62.398438 57.390625 -60.640625 C 56.691406 -58.660156 55.910156 -56.769531 55.046875 -54.96875 C 54.054688 -53.101562 52.804688 -51.609375 51.296875 -50.484375 C 49.648438 -49.285156 47.6875 -48.597656 45.40625 -48.421875 C 43.09375 -48.128906 40.160156 -48.609375 36.609375 -49.859375 C 33.359375 -51.015625 30.972656 -52.414062 29.453125 -54.0625 C 27.796875 -55.632812 26.742188 -57.34375 26.296875 -59.1875 C 25.828125 -61 25.796875 -62.945312 26.203125 -65.03125 C 26.566406 -67.007812 27.097656 -68.984375 27.796875 -70.953125 Z M 27.796875 -70.953125 "/></g></g></g><g fill="#5271ff" fill-opacity="1"><g transform="translate(1089.67082, 217.560772)"><g><path d="M 16.875 -33.578125 C 18.707031 -38.128906 20.738281 -42.601562 22.96875 -47 C 25.144531 -51.300781 28.054688 -54.914062 31.703125 -57.84375 C 35.328125 -60.675781 39.945312 -62.363281 45.5625 -62.90625 C 51.09375 -63.488281 58.148438 -62.285156 66.734375 -59.296875 L 69.796875 -58.0625 C 77.835938 -54.820312 83.550781 -51.117188 86.9375 -46.953125 C 90.289062 -42.660156 92.269531 -38.203125 92.875 -33.578125 C 93.351562 -28.890625 92.867188 -24.1875 91.421875 -19.46875 C 89.941406 -14.664062 88.34375 -10.128906 86.625 -5.859375 C 84.707031 -1.109375 82.566406 3.378906 80.203125 7.609375 C 77.796875 11.929688 74.707031 15.414062 70.9375 18.0625 C 67.164062 20.707031 62.472656 22.140625 56.859375 22.359375 C 51.222656 22.679688 44.234375 21.164062 35.890625 17.8125 C 28.234375 14.738281 22.628906 11.191406 19.078125 7.171875 C 15.410156 3.097656 13.140625 -1.191406 12.265625 -5.703125 C 11.242188 -10.171875 11.304688 -14.816406 12.453125 -19.640625 C 13.566406 -24.367188 15.039062 -29.015625 16.875 -33.578125 Z M 57.46875 -34.984375 C 55 -35.535156 53.0625 -35.75 51.65625 -35.625 C 50.125 -35.457031 48.863281 -34.835938 47.875 -33.765625 C 46.78125 -32.742188 45.796875 -31.285156 44.921875 -29.390625 C 44.046875 -27.484375 42.984375 -24.976562 41.734375 -21.875 C 40.523438 -18.882812 39.519531 -16.253906 38.71875 -13.984375 C 37.925781 -11.710938 37.53125 -9.734375 37.53125 -8.046875 C 37.382812 -6.296875 37.804688 -4.828125 38.796875 -3.640625 C 39.648438 -2.398438 41.238281 -1.3125 43.5625 -0.375 C 45.988281 0.59375 47.984375 0.945312 49.546875 0.6875 C 51.085938 0.519531 52.457031 -0.226562 53.65625 -1.5625 C 54.820312 -2.78125 55.898438 -4.484375 56.890625 -6.671875 C 57.785156 -8.910156 58.835938 -11.523438 60.046875 -14.515625 C 61.140625 -17.234375 62.164062 -19.640625 63.125 -21.734375 C 63.976562 -23.859375 64.554688 -25.707031 64.859375 -27.28125 C 65.148438 -28.84375 65.015625 -30.1875 64.453125 -31.3125 C 63.890625 -32.457031 62.738281 -33.378906 61 -34.078125 C 60.132812 -34.429688 58.957031 -34.734375 57.46875 -34.984375 Z M 57.46875 -34.984375 "/></g></g></g></svg>